<svg width="512" height="512" viewBox="0 0 512 512" fill="none" xmlns="http://www.w3.org/2000/svg">
  <!-- Blue rounded square -->
  <rect width="512" height="512" rx="112" fill="#1B4F8A"/>

  <!-- Fork (white) — left side -->
  <line x1="152" y1="100" x2="152" y2="220" stroke="white" stroke-width="28" stroke-linecap="round"/>
  <line x1="196" y1="100" x2="196" y2="220" stroke="white" stroke-width="28" stroke-linecap="round"/>
  <line x1="240" y1="100" x2="240" y2="220" stroke="white" stroke-width="28" stroke-linecap="round"/>
  <path d="M152 220 Q152 272 196 272 Q240 272 240 220" stroke="white" stroke-width="28" fill="none" stroke-linejoin="round"/>
  <line x1="196" y1="272" x2="196" y2="412" stroke="white" stroke-width="28" stroke-linecap="round"/>

  <!-- Leaf (white with red accent) — right side -->
  <path d="M320 88 C320 88 448 140 444 256 C441 340 374 400 340 412 C340 412 268 360 288 280 C304 216 320 88 320 88Z" fill="white"/>
  <!-- Red leaf vein -->
  <path d="M334 118 C340 200 338 340 334 400" stroke="#D42B2B" stroke-width="10" stroke-linecap="round" opacity="0.7"/>
  <!-- Small red side veins -->
  <path d="M336 200 C360 195 385 205 405 220" stroke="#D42B2B" stroke-width="7" stroke-linecap="round" opacity="0.5"/>
  <path d="M333 270 C355 260 378 268 398 280" stroke="#D42B2B" stroke-width="7" stroke-linecap="round" opacity="0.5"/>
</svg>
